<?xml version="1.0" standalone="no"?>
<!DOCTYPE svg PUBLIC "-//W3C//DTD SVG 20010904//EN"
 "http://www.w3.org/TR/2001/REC-SVG-20010904/DTD/svg10.dtd">
<svg version="1.0" xmlns="http://www.w3.org/2000/svg"
 width="657.000000pt" height="657.000000pt" viewBox="0 0 657.000000 657.000000"
 preserveAspectRatio="xMidYMid meet">
<metadata>
Created by potrace 1.14, written by Peter Selinger 2001-2017
</metadata>
<g transform="translate(0.000000,657.000000) scale(0.100000,-0.100000)"
fill="#000000" stroke="none">
<path d="M3303 6495 c0 -8 5 -15 11 -15 5 0 1 -6 -9 -14 -16 -12 -17 -16 -6
-30 10 -11 10 -16 2 -16 -7 0 -9 -4 -6 -10 3 -5 1 -10 -6 -10 -7 0 -10 -3 -7
-6 9 -8 -22 -94 -34 -94 -5 0 -7 -4 -3 -9 3 -5 -2 -16 -10 -24 -8 -9 -15 -20
-15 -26 0 -6 -26 -37 -58 -68 -55 -56 -128 -103 -158 -103 -8 0 -14 -5 -14
-11 0 -5 -4 -8 -9 -4 -5 3 -12 1 -15 -3 -3 -5 -16 -9 -28 -8 -13 1 -25 -2 -28
-6 -3 -4 -16 -9 -28 -11 -12 -2 -28 -9 -34 -15 -9 -9 -7 -12 10 -13 29 -2 35
-3 47 -10 6 -4 18 -5 28 -4 9 2 17 -1 17 -6 0 -5 3 -8 8 -7 15 3 102 -35 102
-45 0 -5 4 -6 9 -3 5 3 12 -1 15 -10 3 -8 10 -13 14 -10 5 3 19 -6 30 -19 12
-14 27 -25 34 -25 6 0 9 -3 5 -6 -3 -3 8 -19 24 -35 16 -16 27 -29 23 -29 -4
0 1 -9 11 -20 10 -11 14 -20 9 -20 -5 0 -4 -4 2 -8 17 -11 51 -118 57 -174 2
-27 23 -47 25 -25 2 36 12 77 20 94 6 10 10 23 10 28 1 15 45 107 62 130 45
59 114 116 181 148 73 35 118 49 182 56 32 4 -37 41 -76 41 -9 0 -17 4 -17 8
0 4 -10 8 -22 9 -24 2 -111 43 -116 56 -2 4 -8 7 -14 7 -21 0 -138 133 -138
157 0 7 -5 13 -12 13 -6 0 -8 3 -5 7 4 3 1 16 -6 27 -8 12 -18 35 -22 51 -11
40 -12 45 -18 84 -6 36 -24 63 -24 36z"/>
<path d="M5178 6220 c-49 -33 -88 -56 -88 -52 0 4 -4 2 -8 -4 -4 -5 -25 -21
-47 -34 -22 -13 -42 -26 -45 -29 -3 -4 -18 -13 -35 -21 -16 -8 -47 -27 -67
-43 -21 -16 -38 -26 -38 -22 0 3 -6 1 -12 -5 -26 -22 -289 -190 -298 -190 -6
0 -10 -3 -10 -7 0 -10 -62 -47 -72 -45 -5 1 -8 -3 -8 -8 0 -6 -5 -10 -10 -10
-12 0 -73 -41 -78 -53 -2 -4 -8 -5 -13 -1 -5 3 -9 0 -9 -5 0 -6 -7 -11 -15
-11 -8 0 -15 -4 -15 -8 0 -4 -25 -21 -55 -37 -30 -17 -55 -33 -55 -37 0 -4
-16 -14 -35 -22 -19 -8 -35 -17 -35 -20 0 -2 61 -4 135 -4 74 0 139 -3 145 -7
5 -3 10 -3 10 2 0 4 29 8 65 8 65 0 66 0 60 -25 -4 -14 -12 -28 -18 -32 -7 -4
-8 -8 -4 -8 5 0 -2 -15 -15 -32 -13 -18 -22 -35 -22 -38 2 -8 -9 -34 -16 -40
-3 -3 -27 -43 -52 -90 -72 -137 -100 -185 -110 -188 -4 -2 -6 -8 -2 -13 3 -5
1 -9 -4 -9 -5 0 -15 -13 -22 -30 -7 -16 -16 -30 -20 -30 -5 0 -11 -14 -15 -31
-4 -17 -9 -28 -12 -25 -6 5 -14 -8 -50 -75 -7 -15 -20 -32 -28 -39 -8 -7 -15
-19 -15 -26 0 -8 -5 -14 -11 -14 -5 0 -7 -4 -4 -10 3 -5 1 -10 -5 -10 -6 0 -8
-4 -5 -10 3 -5 2 -10 -2 -10 -5 0 -19 -18 -33 -40 -14 -22 -28 -40 -33 -40 -4
0 -6 -4 -3 -8 3 -5 -6 -21 -20 -37 -14 -17 -35 -47 -47 -67 -11 -21 -24 -38
-29 -38 -4 0 -8 -6 -8 -13 0 -7 -9 -23 -20 -35 -11 -12 -20 -26 -20 -32 0 -6
-7 -13 -15 -16 -8 -4 -12 -10 -9 -15 3 -5 1 -9 -3 -9 -5 0 -16 -12 -25 -27 -9
-16 -26 -39 -37 -52 -12 -13 -21 -30 -21 -38 0 -7 -7 -13 -16 -13 -8 0 -13 -4
-10 -9 3 -5 -6 -21 -19 -37 -41 -46 -46 -54 -39 -54 4 0 -5 -11 -20 -25 -15
-14 -23 -25 -19 -25 4 0 -1 -7 -12 -16 -11 -8 -20 -18 -21 -22 -2 -20 -17 -41
-25 -36 -5 3 -9 0 -9 -6 0 -6 -6 -18 -12 -25 -14 -16 -18 -20 -68 -85 -19 -25
-39 -51 -45 -58 -5 -7 -20 -24 -33 -37 -13 -14 -21 -25 -18 -25 2 0 -10 -15
-27 -33 -18 -18 -48 -52 -67 -76 -19 -24 -46 -55 -60 -71 -31 -34 -145 -162
-172 -192 -11 -13 -25 -22 -32 -20 -6 2 -8 0 -4 -4 5 -4 -12 -27 -36 -50 -24
-24 -41 -46 -38 -49 3 -3 -2 -5 -11 -5 -10 0 -17 -3 -17 -7 0 -13 -108 -122
-114 -115 -3 3 -6 -3 -6 -13 0 -10 -3 -15 -7 -12 -3 4 -15 -5 -25 -20 -10 -16
-18 -25 -18 -22 0 4 -26 -19 -58 -50 -51 -50 -178 -166 -270 -246 -19 -16 -47
-43 -63 -59 -16 -16 -29 -26 -29 -23 0 4 -16 -8 -35 -26 -19 -17 -48 -43 -65
-57 -17 -14 -41 -34 -53 -45 -13 -11 -39 -31 -57 -45 -19 -14 -42 -33 -52 -42
-10 -10 -18 -16 -18 -13 0 3 -11 -4 -24 -17 -13 -13 -33 -30 -46 -38 -12 -8
-28 -20 -34 -25 -6 -6 -40 -31 -76 -55 -36 -25 -67 -47 -70 -50 -8 -8 -64 -44
-70 -45 -3 0 -25 -15 -49 -33 -44 -32 -65 -36 -67 -14 -1 7 -2 17 -3 23 0 5
-5 8 -10 5 -5 -4 -8 2 -7 11 2 10 -1 28 -5 41 -5 12 -11 33 -13 45 -3 12 -8
33 -12 47 -3 14 -8 40 -11 58 -3 17 -8 32 -12 32 -3 0 -7 10 -7 23 -1 12 -5
49 -9 82 -8 75 -12 355 -5 355 3 0 6 19 6 43 2 46 6 72 30 185 3 15 6 33 6 40
1 6 4 12 8 12 4 0 6 11 5 25 -2 14 0 25 4 25 3 0 12 25 20 57 7 31 16 63 21
72 17 32 55 136 52 144 -1 4 1 7 6 7 4 0 18 25 32 55 14 30 28 55 33 55 4 0 7
5 7 12 0 10 44 82 60 98 3 3 6 11 8 18 2 12 38 68 52 82 3 3 23 28 44 55 22
28 54 66 72 85 18 19 43 47 57 63 13 15 30 27 36 27 7 0 9 5 6 10 -3 6 -2 10
2 10 13 0 73 57 67 64 -2 3 -1 4 2 1 6 -4 92 60 106 80 5 6 8 6 8 1 0 -6 9 0
19 11 11 11 33 27 50 34 17 8 31 17 31 21 0 5 7 8 15 8 8 0 15 4 15 9 0 7 28
19 47 19 3 0 9 4 12 9 10 14 71 45 71 36 0 -4 4 -3 8 2 13 19 230 100 240 90
3 -2 11 0 19 6 7 6 13 9 13 6 0 -3 20 0 45 7 25 8 45 10 45 5 0 -10 52 11 62
25 4 6 4 14 2 18 -3 4 -2 8 3 8 8 0 7 167 -2 206 -4 18 -11 20 -57 18 -29 -1
-53 -3 -53 -4 0 -1 -7 -3 -15 -5 -8 -1 -40 -8 -70 -14 -30 -6 -64 -13 -75 -15
-11 -2 -33 -9 -49 -15 -16 -7 -31 -9 -34 -7 -2 3 -14 -1 -26 -9 -11 -8 -26
-15 -33 -15 -7 0 -36 -11 -65 -24 -53 -23 -81 -34 -96 -37 -4 -1 -19 -10 -34
-20 -14 -10 -29 -19 -33 -19 -12 0 -143 -79 -161 -98 -10 -9 -19 -16 -21 -14
-9 7 -33 0 -28 -8 3 -5 1 -10 -4 -10 -10 0 -36 -19 -66 -47 -8 -7 -18 -13 -23
-13 -6 0 -13 -7 -16 -16 -4 -9 -9 -14 -12 -11 -3 3 -56 -46 -117 -109 -139
-141 -170 -174 -162 -174 3 0 -5 -10 -18 -22 -13 -13 -26 -31 -30 -40 -3 -10
-11 -18 -17 -18 -6 0 -9 -4 -6 -8 2 -4 -9 -23 -25 -41 -16 -19 -29 -40 -29
-48 0 -7 -7 -16 -15 -19 -8 -4 -15 -12 -15 -18 0 -7 -8 -21 -17 -32 -10 -11
-19 -26 -21 -34 -2 -8 -7 -17 -10 -20 -10 -7 -46 -84 -44 -92 1 -5 -2 -8 -7
-8 -10 0 -27 -39 -23 -52 1 -5 -3 -8 -8 -8 -6 0 -10 -8 -10 -18 0 -10 -5 -23
-12 -30 -7 -7 -8 -12 -4 -12 5 0 2 -10 -6 -22 -18 -29 -59 -142 -61 -168 -1
-11 -6 -20 -11 -20 -5 0 -6 -3 -3 -6 3 -4 1 -16 -4 -27 -6 -11 -13 -29 -14
-41 -2 -11 -8 -38 -13 -58 -6 -21 -8 -38 -5 -38 3 0 1 -6 -6 -13 -6 -8 -9 -23
-6 -35 2 -12 0 -24 -6 -27 -14 -9 -11 -27 4 -19 6 4 4 -2 -7 -14 -15 -17 -16
-25 -7 -36 7 -9 8 -15 2 -18 -6 -1 -12 -43 -15 -92 -3 -49 -8 -91 -10 -94 -3
-2 -1 -13 5 -23 5 -11 6 -19 2 -19 -4 0 -7 -28 -6 -62 1 -35 2 -63 3 -63 1 0
11 -148 13 -202 1 -13 4 -23 7 -23 3 0 6 -10 7 -22 1 -41 9 -94 16 -104 3 -6
9 -26 12 -45 6 -37 24 -98 34 -114 3 -5 6 -14 6 -20 1 -32 64 -191 111 -280
27 -49 61 -64 107 -46 18 7 38 13 45 14 6 0 12 4 12 8 0 5 15 16 33 25 17 9
35 22 39 28 4 6 8 7 8 3 0 -4 27 10 59 33 33 22 64 40 70 40 5 0 11 3 13 8 2
4 37 30 78 57 41 27 81 55 88 62 7 7 17 13 21 13 4 0 16 8 27 18 10 10 35 28
54 42 19 13 37 27 40 30 3 3 21 17 40 30 19 13 37 27 40 30 10 10 75 57 85 61
6 2 28 20 49 41 22 20 43 35 48 32 4 -3 8 2 8 10 0 9 4 16 9 16 4 0 19 10 33
22 26 24 87 77 151 131 21 17 61 53 88 78 27 26 49 45 49 43 0 -4 80 69 150
136 20 19 57 54 83 78 26 23 44 42 41 42 -2 0 18 20 45 44 27 24 47 46 45 49
-3 3 4 8 15 12 12 3 21 10 21 15 0 5 11 20 25 34 14 14 25 23 25 20 0 -3 12 9
28 28 15 18 48 54 75 80 26 26 47 53 47 58 0 6 5 8 10 5 6 -3 10 -2 10 3 0 5
22 32 49 60 26 29 66 73 87 98 21 25 50 58 64 73 14 15 43 49 65 75 22 27 49
57 59 67 11 11 17 19 13 19 -3 0 10 17 31 37 20 21 37 40 37 43 0 5 43 56 78
92 9 10 17 22 17 27 0 6 10 17 23 26 12 8 20 17 17 18 -5 2 7 19 43 58 9 10
14 19 10 19 -5 1 2 9 14 19 12 10 19 21 16 25 -3 3 2 8 11 12 9 3 16 12 16 20
0 8 5 14 10 14 6 0 10 4 10 10 0 9 25 42 58 76 6 7 12 17 12 22 0 4 11 19 25
32 14 13 25 29 25 36 0 6 7 15 16 18 9 4 14 9 10 13 -3 3 3 13 14 20 11 8 18
19 15 24 -4 5 -2 9 4 9 6 0 18 15 27 33 9 17 23 36 30 40 8 4 14 13 14 18 0 6
6 17 13 24 26 30 37 44 37 50 0 8 44 69 53 73 4 2 7 10 7 18 0 8 7 17 15 20 8
4 13 10 10 14 -3 4 2 13 10 20 8 7 15 18 15 25 0 7 7 16 16 19 8 3 12 10 9 16
-3 5 -1 10 4 10 6 0 11 6 11 14 0 8 7 17 16 20 9 4 14 9 11 12 -2 3 6 17 19
31 13 14 21 29 19 33 -3 5 -2 10 3 12 12 5 52 64 78 116 13 26 24 43 24 37 1
-13 42 66 43 82 0 7 4 10 8 7 4 -2 11 6 15 18 4 13 17 37 30 53 12 17 23 35
24 40 0 6 8 19 16 30 8 11 14 24 14 28 -1 5 7 16 18 25 10 9 21 25 25 35 4 10
11 17 16 15 9 -3 111 -136 111 -144 0 -3 16 -26 36 -50 20 -24 33 -44 29 -44
-5 0 1 -8 11 -17 11 -10 33 -39 49 -64 33 -54 51 -54 52 -1 0 36 10 159 18
217 2 17 6 62 10 100 3 39 8 88 10 110 3 22 7 61 9 87 3 26 8 53 12 59 5 8 3
9 -6 4 -9 -5 -11 -4 -6 4 5 7 10 36 12 64 3 48 8 96 19 187 6 56 17 174 18
190 0 8 5 18 11 22 8 6 8 8 -1 8 -8 0 -9 9 -3 31 5 16 6 37 3 45 -3 8 -1 14 4
14 5 0 9 9 9 20 0 34 -36 23 -128 -40z"/>
<path d="M2480 6143 c-21 -7 -71 -64 -64 -74 3 -5 1 -9 -4 -9 -7 0 -9 -39 -2
-47 3 -3 4 -8 15 -40 4 -13 11 -20 16 -17 5 3 9 2 9 -3 0 -16 47 -30 65 -20
13 7 16 6 11 -2 -5 -8 1 -7 21 1 27 13 63 43 63 53 0 3 0 6 1 8 27 82 -53 174
-131 150z"/>
<path d="M4095 6143 c-11 -3 -26 -12 -32 -21 -7 -9 -13 -12 -13 -6 0 5 -9 -9
-19 -31 -10 -22 -15 -42 -12 -45 3 -3 7 -17 8 -33 2 -29 12 -42 56 -70 15 -10
27 -13 27 -7 0 6 4 9 9 6 5 -4 22 -1 38 6 15 6 31 11 34 10 10 -2 38 72 35 93
-10 73 -64 114 -131 98z"/>
<path d="M2966 5573 c-4 -4 -19 -8 -34 -9 -42 -3 -121 -15 -188 -28 -33 -7
-68 -12 -77 -10 -9 1 -17 -2 -17 -6 0 -5 -8 -9 -17 -9 -45 -2 -63 -6 -63 -13
0 -4 -8 -8 -18 -8 -10 0 -41 -7 -68 -16 -27 -9 -56 -18 -64 -20 -8 -3 -17 -5
-20 -5 -3 0 -16 -7 -29 -16 -13 -8 -20 -10 -16 -3 4 7 -5 4 -21 -6 -15 -11
-28 -18 -29 -16 0 4 -50 -14 -90 -33 -16 -7 -33 -11 -37 -9 -4 3 -8 0 -8 -5 0
-6 -6 -11 -14 -11 -8 0 -39 -13 -70 -29 -31 -17 -56 -27 -56 -24 0 3 -8 -1
-17 -9 -10 -8 -33 -21 -50 -29 -18 -8 -33 -17 -33 -21 0 -5 -7 -8 -15 -8 -8 0
-15 -4 -15 -10 0 -5 -7 -10 -15 -10 -8 0 -15 -4 -15 -10 0 -5 -3 -9 -7 -8 -9
3 -45 -19 -120 -74 -29 -21 -53 -35 -53 -31 0 4 -6 0 -12 -8 -7 -9 -44 -40
-83 -69 -38 -30 -71 -57 -73 -62 -2 -4 -7 -8 -12 -8 -17 0 -223 -200 -310
-300 -25 -29 -52 -60 -60 -69 -37 -41 -80 -100 -80 -111 0 -6 -4 -8 -10 -5 -5
3 -10 -1 -10 -9 0 -9 -5 -16 -11 -16 -5 0 -7 -4 -4 -10 3 -5 -1 -10 -10 -10
-9 0 -14 -4 -10 -9 3 -5 -1 -15 -8 -23 -22 -23 -102 -152 -99 -160 1 -4 -2 -8
-7 -8 -14 0 -217 -413 -212 -433 0 -4 -5 -20 -14 -36 -8 -16 -11 -31 -8 -35 4
-3 1 -6 -5 -6 -7 0 -11 -3 -10 -7 1 -5 -6 -35 -17 -68 -21 -68 -21 -70 -30
-105 -15 -61 -18 -76 -19 -92 0 -10 -3 -18 -6 -18 -3 0 -6 -8 -7 -17 -2 -24
-12 -92 -19 -125 -6 -28 -11 -66 -20 -133 -3 -22 -6 -70 -7 -107 -1 -38 -5
-68 -8 -68 -3 0 -4 -89 -2 -197 4 -189 8 -288 13 -288 1 0 3 -16 6 -35 5 -51
12 -104 15 -110 1 -3 1 -8 1 -11 -1 -4 3 -22 9 -40 5 -19 12 -52 15 -74 4 -22
10 -48 15 -57 6 -10 7 -18 3 -18 -3 0 -1 -7 6 -15 10 -12 10 -15 0 -15 -9 0
-8 -6 3 -24 9 -12 17 -36 20 -52 2 -16 6 -36 10 -44 29 -75 45 -129 40 -134
-4 -3 0 -6 7 -6 7 0 11 -3 7 -6 -3 -4 0 -19 8 -34 8 -15 11 -30 8 -34 -4 -3
-1 -6 5 -6 7 0 12 -9 12 -19 0 -11 4 -23 10 -26 6 -3 10 -15 10 -26 0 -11 4
-17 10 -14 5 3 10 -3 10 -15 0 -21 18 -60 33 -71 5 -3 8 -9 7 -13 -2 -11 24
-66 32 -66 5 0 8 -8 8 -17 0 -10 9 -29 20 -43 11 -14 20 -31 20 -37 0 -7 5
-13 11 -13 5 0 7 -5 4 -10 -3 -6 -2 -10 4 -10 5 0 13 -10 17 -22 8 -26 64
-111 76 -116 4 -2 6 -8 2 -13 -3 -5 -1 -9 3 -9 5 0 17 -16 27 -35 11 -19 23
-35 28 -35 4 0 8 -6 8 -14 0 -8 4 -16 8 -18 5 -1 22 -23 39 -48 18 -25 42 -57
55 -72 13 -14 39 -45 58 -69 69 -85 303 -309 322 -309 4 0 8 -3 8 -8 0 -4 18
-18 40 -32 22 -14 40 -28 40 -32 0 -5 7 -8 15 -8 7 0 18 -6 22 -13 9 -14 85
-67 97 -67 5 0 17 -10 27 -22 11 -11 19 -17 19 -13 0 4 8 2 18 -6 9 -8 28 -20
41 -27 108 -61 135 -76 141 -77 3 -1 25 -12 50 -25 25 -13 48 -23 53 -22 4 1
7 -3 7 -9 0 -5 4 -8 9 -4 5 3 17 -3 27 -12 10 -10 19 -17 21 -15 2 1 5 1 8 1
3 -1 8 -2 13 -3 12 -2 126 -47 145 -57 10 -5 22 -7 27 -4 4 3 14 -1 22 -8 7
-8 23 -13 36 -12 12 1 22 -3 22 -8 0 -6 3 -7 7 -4 3 4 11 3 17 -2 9 -7 59 -21
129 -37 4 -1 10 -3 15 -4 4 -2 12 -4 17 -5 6 -2 12 -4 15 -5 3 -1 16 -4 30 -6
14 -2 45 -7 70 -13 45 -9 93 -18 140 -26 27 -4 152 -17 185 -19 11 -1 26 -5
33 -9 7 -5 12 -3 12 4 0 7 4 8 13 2 12 -9 326 -9 402 1 84 10 141 18 155 21 8
1 33 6 55 10 22 3 54 9 70 12 17 3 40 5 53 6 12 1 22 4 22 7 0 6 34 11 87 14
17 0 30 3 28 6 -4 6 135 45 148 42 4 -1 7 3 7 8 0 6 8 10 18 10 15 0 106 28
152 47 8 3 18 7 23 8 4 2 10 4 15 5 4 1 10 2 15 1 4 0 7 4 7 11 0 6 3 8 7 5 3
-4 12 -2 20 4 7 6 13 8 13 3 0 -5 4 -4 8 3 4 6 16 13 27 15 11 1 22 5 25 8 3
3 44 25 93 49 48 23 87 47 87 52 0 6 4 8 9 5 5 -3 14 1 21 9 7 8 16 12 21 9 5
-3 9 -1 9 4 0 5 8 12 18 16 23 8 54 28 73 48 9 10 19 15 23 11 3 -3 6 -1 6 6
0 7 4 10 9 7 5 -3 11 1 15 9 3 8 12 15 21 15 8 0 15 4 15 8 0 4 15 16 33 27
17 10 36 24 40 32 4 7 12 13 17 13 9 0 24 12 103 84 20 19 37 32 37 29 0 -3
45 40 100 96 55 56 100 106 100 112 0 5 5 7 10 4 6 -3 10 -2 10 3 0 8 18 31
64 82 7 8 45 58 84 110 39 52 78 103 86 113 9 9 16 22 16 27 0 6 5 10 10 10 6
0 10 6 10 14 0 8 6 21 13 28 17 19 34 46 55 88 9 19 19 37 22 40 3 3 16 29 29
58 14 28 28 52 33 52 5 0 7 4 4 9 -3 4 7 35 23 67 46 95 64 138 64 152 0 6 3
12 7 12 4 0 7 6 7 13 1 6 12 43 27 81 14 38 23 72 21 77 -3 4 -1 9 5 11 5 1
11 15 12 31 1 15 6 27 11 27 4 0 6 4 3 9 -4 5 -1 22 5 38 11 27 14 38 23 86 2
12 5 22 6 22 1 0 3 9 5 20 2 11 6 31 10 45 3 14 7 36 8 50 1 14 5 30 9 35 3 6
5 25 3 42 -1 18 1 33 6 33 4 0 6 9 4 20 -2 11 2 20 8 20 9 0 9 2 1 8 -6 4 -9
16 -7 27 13 62 17 153 17 350 0 253 -5 337 -19 347 -6 5 -6 11 2 19 7 7 9 18
4 28 -5 9 -11 34 -14 56 -8 55 -24 140 -27 140 -1 0 -3 8 -5 19 -2 10 -9 41
-16 70 -7 28 -14 54 -15 59 -1 4 -3 9 -4 12 -1 3 -3 9 -4 14 0 5 -4 12 -8 16
-4 4 -4 13 -1 21 3 8 -1 14 -8 14 -7 0 -10 3 -6 6 3 4 0 22 -8 40 -8 19 -14
35 -14 37 1 10 -88 232 -112 278 -10 22 -16 39 -12 39 5 0 4 4 -2 8 -11 8 -30
40 -53 87 -21 44 -75 129 -84 133 -5 2 -6 7 -3 12 2 4 -4 15 -15 25 -11 10
-20 22 -20 28 0 5 -13 26 -30 47 -16 21 -30 43 -30 50 0 6 -4 8 -10 5 -5 -3
-10 -1 -10 5 0 12 -78 113 -91 118 -5 2 -9 8 -9 13 0 5 -15 25 -32 44 -18 19
-38 40 -44 47 -41 47 -86 74 -116 69 -5 0 -8 4 -8 9 0 7 -6 7 -20 0 -13 -7
-20 -7 -20 -1 0 7 -8 7 -24 1 -13 -5 -27 -6 -30 -3 -3 4 -6 1 -6 -5 0 -7 -7
-12 -15 -12 -14 0 -65 -59 -55 -64 3 -2 0 -9 -6 -17 -5 -8 -9 -25 -7 -39 2
-14 4 -31 5 -37 1 -7 5 -13 10 -13 4 0 8 -6 8 -14 0 -7 14 -27 30 -44 17 -18
30 -34 30 -37 0 -3 12 -17 26 -30 15 -14 24 -25 20 -25 -4 0 6 -13 21 -28 37
-37 64 -72 57 -72 -3 0 9 -15 25 -32 17 -18 31 -39 31 -45 0 -7 5 -13 11 -13
5 0 7 -4 4 -10 -3 -5 -2 -10 4 -10 5 0 16 -11 23 -24 7 -13 37 -65 66 -115 28
-50 52 -97 52 -105 0 -8 4 -16 9 -18 5 -1 11 -10 13 -18 2 -8 9 -21 15 -28 7
-7 16 -25 20 -40 3 -15 9 -29 12 -32 8 -6 33 -71 34 -87 0 -7 4 -13 9 -13 4 0
8 -8 8 -18 0 -10 5 -23 12 -30 7 -7 8 -12 4 -12 -5 0 -3 -7 4 -15 7 -9 10 -18
7 -22 -4 -3 -2 -12 3 -18 6 -7 11 -24 12 -39 1 -14 6 -26 10 -26 4 0 7 -3 7
-7 -1 -5 0 -10 1 -13 1 -3 3 -14 5 -25 5 -29 13 -63 24 -99 11 -37 25 -108 23
-118 -1 -4 3 -19 8 -33 7 -18 6 -25 -3 -25 -8 0 -8 -3 -2 -8 6 -4 10 -17 9
-29 -1 -13 2 -23 6 -23 9 0 6 -32 -5 -49 -5 -9 -4 -12 3 -7 6 4 11 -1 11 -11
7 -331 7 -430 3 -437 -3 -5 -7 -28 -8 -50 -1 -23 -6 -68 -9 -101 -4 -33 -7
-68 -7 -77 1 -10 -2 -18 -6 -18 -4 0 -8 -15 -8 -33 -1 -17 -4 -45 -7 -62 -3
-16 -9 -43 -12 -60 -3 -16 -9 -39 -14 -50 -8 -19 -36 -125 -47 -175 -3 -13 -9
-29 -15 -36 -5 -6 -7 -13 -4 -16 3 -3 -1 -11 -9 -17 -8 -7 -12 -19 -9 -27 3
-8 1 -14 -4 -14 -5 0 -9 -8 -10 -18 -1 -10 -20 -58 -42 -105 -22 -48 -40 -90
-40 -94 1 -3 -3 -9 -8 -12 -5 -3 -17 -25 -27 -48 -11 -24 -23 -43 -28 -43 -4
0 -8 -7 -8 -15 0 -8 -8 -24 -17 -35 -10 -11 -18 -25 -18 -30 0 -4 -10 -20 -22
-33 -12 -14 -19 -28 -16 -31 4 -3 1 -6 -5 -6 -7 0 -11 -6 -9 -12 1 -7 -4 -12
-11 -10 -8 1 -11 -2 -7 -7 3 -6 -10 -31 -30 -56 -19 -26 -35 -51 -35 -56 0 -6
-4 -7 -10 -4 -5 3 -10 0 -10 -7 0 -7 -17 -32 -38 -55 -20 -22 -50 -58 -67 -79
-36 -45 -86 -96 -91 -92 -9 9 -11 58 -3 58 6 0 7 5 3 12 -9 15 -9 127 0 164 7
25 22 44 104 130 13 13 20 24 18 24 -5 0 10 20 39 54 16 18 62 90 64 101 1 6
9 14 17 18 8 4 14 14 14 21 0 8 7 19 15 26 8 7 12 16 9 21 -3 5 0 9 7 9 7 0 9
3 6 6 -4 4 2 19 12 33 22 32 63 118 61 127 -1 4 2 10 7 13 11 7 65 131 57 131
-2 0 2 13 10 29 9 16 12 31 9 35 -4 3 -2 6 4 6 5 0 10 6 10 13 0 6 10 46 22
87 27 90 34 119 35 143 0 9 3 17 6 17 3 0 6 10 7 23 1 22 7 60 18 127 7 38 12
85 21 170 7 74 11 303 5 314 -2 5 -6 30 -7 55 -3 55 -11 123 -20 171 -3 19 -7
40 -8 45 -1 6 -6 16 -10 24 -7 10 -6 12 4 6 10 -6 11 -4 4 6 -8 14 -11 22 -18
64 -2 11 -6 27 -9 35 -3 8 -5 22 -5 30 0 8 -10 40 -21 70 -12 30 -21 62 -21
72 0 9 -4 18 -10 20 -5 2 -10 18 -12 36 -1 17 -6 32 -10 32 -4 0 -8 4 -8 9 0
5 -15 42 -34 83 -19 40 -34 76 -33 79 1 4 -6 15 -15 25 -9 11 -18 26 -20 34
-2 8 -6 17 -10 20 -3 3 -8 12 -10 20 -2 8 -9 21 -16 28 -7 8 -10 18 -7 23 4 5
2 9 -3 9 -4 0 -19 18 -31 41 -39 69 -75 99 -118 99 -87 0 -109 -64 -51 -148
17 -26 36 -49 40 -50 4 -2 6 -7 3 -12 -3 -5 1 -14 8 -22 7 -7 18 -24 25 -38 6
-14 16 -32 22 -40 15 -22 84 -173 86 -189 2 -8 6 -17 11 -20 4 -3 9 -15 11
-26 1 -11 7 -29 11 -40 25 -58 59 -171 68 -230 7 -43 11 -60 14 -60 1 0 3 -9
4 -20 2 -11 6 -40 9 -65 15 -106 18 -164 18 -310 1 -146 -1 -182 -17 -304 -9
-69 -9 -70 -20 -78 -6 -5 -5 -8 2 -8 9 0 10 -7 3 -24 -5 -13 -6 -27 -3 -30 4
-3 2 -6 -4 -6 -6 0 -11 -12 -11 -27 0 -16 -2 -35 -4 -43 -3 -8 -8 -33 -13 -55
-4 -22 -12 -46 -18 -53 -5 -6 -7 -12 -4 -12 4 0 -2 -20 -13 -45 -11 -25 -17
-45 -14 -45 2 0 0 -9 -6 -21 -6 -11 -13 -28 -15 -38 -5 -26 -102 -229 -126
-262 -11 -16 -17 -29 -12 -29 4 0 0 -5 -9 -11 -10 -5 -18 -15 -18 -20 0 -11
-51 -82 -63 -87 -4 -2 -6 -7 -4 -10 2 -4 -4 -15 -14 -24 -15 -14 -19 -15 -30
-2 -9 11 -9 14 1 14 9 0 9 4 2 13 -13 15 -13 27 -1 49 6 10 5 19 -1 23 -6 4
-7 11 -4 17 4 6 6 44 5 84 -1 42 2 74 7 74 9 0 25 37 23 53 -1 4 4 7 9 7 6 0
10 7 10 15 0 8 5 15 11 15 5 0 7 4 4 10 -3 5 -1 10 4 10 6 0 10 3 9 8 -1 4 10
30 24 57 14 28 31 69 38 93 7 23 17 42 22 42 4 0 7 3 6 8 -3 13 13 72 20 72 4
0 8 10 8 23 3 30 9 55 16 63 4 3 4 12 1 20 -3 8 -1 14 4 14 5 0 10 16 11 37 2
20 5 40 7 43 3 4 7 25 11 46 3 22 7 50 10 64 29 162 21 479 -16 635 -28 117
-32 137 -34 155 0 8 -7 21 -14 28 -7 8 -10 18 -7 22 3 5 1 17 -4 27 -12 23
-23 53 -28 78 -2 11 -8 22 -13 23 -6 2 -10 14 -10 27 0 13 -5 25 -10 27 -6 2
-12 13 -13 26 0 12 -4 22 -8 22 -7 0 -22 39 -20 53 1 4 -3 7 -9 7 -5 0 -18 17
-29 38 -49 93 -105 119 -200 91 -9 -3 -15 5 -16 22 -1 14 -5 33 -8 42 -3 9 -3
18 1 21 7 4 8 142 2 156 -1 3 -1 10 0 15 8 40 8 50 0 60 -5 6 -5 17 0 25 4 7
4 24 0 36 -6 14 -5 26 0 29 10 6 8 54 -3 72 -4 6 -3 14 1 17 8 4 9 50 2 66 -1
3 -1 10 0 15 8 32 6 75 -3 75 -8 0 -7 4 1 12 7 7 8 17 1 30 -5 10 -6 18 -2 18
5 0 8 23 8 50 0 28 -3 50 -8 50 -4 0 -3 9 3 20 6 11 7 20 2 20 -4 0 -14 16
-22 35 -7 19 -17 32 -21 29 -4 -2 -10 5 -14 16 -3 11 -9 19 -13 19 -4 -1 -9 0
-12 1 -42 16 -124 14 -148 -5 -26 -20 -73 -65 -67 -65 3 0 -1 -13 -9 -29 -9
-16 -12 -31 -9 -35 4 -3 2 -6 -4 -6 -5 0 -9 -18 -8 -41 1 -23 -5 -53 -16 -72
-10 -18 -26 -46 -35 -64 -9 -18 -27 -45 -42 -60 -14 -15 -24 -30 -23 -32 2 -2
-10 -17 -25 -35 -16 -17 -42 -51 -59 -75 -16 -24 -35 -45 -42 -48 -7 -3 -13
-11 -13 -19 0 -8 -4 -14 -9 -14 -5 0 -25 -16 -45 -35 l-36 -35 -1 -247 c0
-137 0 -420 0 -630 1 -393 1 -393 -36 -370 -7 5 -13 5 -13 0 0 -4 -4 -3 -8 4
-15 24 -145 18 -162 -7 -3 -4 -14 -10 -25 -14 -20 -6 -20 -2 -21 247 -1 266
-7 307 -47 345 -28 26 -115 64 -121 53 -3 -5 -20 -11 -37 -15 -17 -3 -40 -16
-50 -28 -11 -11 -19 -18 -19 -14 0 4 -7 1 -15 -8 -8 -8 -15 -22 -15 -30 0 -9
-4 -16 -9 -16 -5 0 -13 -9 -16 -20 -4 -12 -16 -30 -28 -40 -11 -11 -18 -20
-14 -20 10 0 -46 -61 -174 -189 -71 -72 -115 -123 -113 -134 1 -9 -2 -17 -7
-17 -6 0 -7 -6 -2 -12 11 -18 10 -42 -2 -50 -7 -5 -7 -10 0 -15 13 -11 15 -43
3 -43 -7 0 -7 -5 -1 -12 11 -15 11 -28 0 -45 -5 -7 -5 -19 -1 -25 10 -16 10
-50 0 -66 -4 -6 -3 -12 3 -12 6 0 6 -11 1 -30 -5 -18 -5 -32 1 -36 6 -4 6 -11
-2 -20 -6 -8 -7 -14 -2 -14 5 0 10 -7 10 -15 0 -8 -4 -15 -8 -15 -6 0 -5 -28
1 -37 6 -8 3 -50 -4 -61 -4 -6 -3 -12 3 -12 6 0 6 -11 1 -30 -5 -17 -5 -32 0
-35 5 -3 5 -16 0 -30 -6 -15 -6 -27 0 -30 5 -3 7 -11 5 -18 -10 -25 -12 -77
-4 -77 5 0 9 -5 9 -11 0 -5 -4 -8 -8 -5 -10 6 -9 -35 1 -51 12 -18 -9 -25 -24
-7 -12 15 -92 60 -96 54 -2 -1 -23 -6 -48 -11 -25 -5 -53 -15 -61 -24 -16 -16
-33 -20 -35 -7 0 4 -2 17 -3 30 -2 13 1 25 6 28 5 3 4 12 -2 19 -8 9 -8 15 0
20 6 3 7 12 3 18 -9 15 -11 87 -3 82 4 -2 7 2 7 10 0 8 -4 15 -7 15 -4 0 -6
13 -5 30 4 47 -47 131 -83 136 -8 2 -18 6 -21 11 -3 5 -16 8 -29 7 -12 -1 -25
3 -28 8 -3 5 -12 4 -19 -2 -8 -7 -19 -9 -25 -5 -5 3 -10 1 -10 -6 0 -7 -3 -10
-6 -6 -7 7 -26 -7 -58 -41 -11 -13 -34 -39 -51 -57 -74 -81 -145 -154 -145
-149 0 2 -12 -7 -27 -21 -15 -14 -31 -25 -35 -25 -3 0 -13 -6 -20 -13 -7 -7
-29 -23 -49 -35 l-36 -22 1 -336 c1 -190 -3 -338 -8 -341 -5 -4 -14 1 -20 9
-28 38 -163 48 -198 15 -45 -42 -46 -42 -45 35 0 40 -3 92 -7 115 -8 46 -50
97 -94 115 -29 12 -113 12 -122 0 -3 -4 -12 -8 -20 -10 -26 -6 -62 -52 -74
-95 -7 -23 -11 -81 -10 -129 2 -84 1 -89 -26 -118 -15 -16 -33 -30 -39 -30 -6
0 -11 -4 -11 -9 0 -5 -10 -13 -22 -17 -12 -3 -28 -13 -36 -20 -7 -8 -17 -12
-22 -9 -20 12 -26 -30 -26 -160 1 -77 -3 -143 -8 -146 -9 -7 -64 45 -111 106
-16 22 -38 47 -47 57 -10 10 -18 20 -18 23 0 4 -13 21 -45 59 -5 7 -14 19 -20
28 -5 8 -29 43 -52 76 -24 34 -43 65 -43 71 0 5 -8 15 -17 20 -10 6 -14 11
-10 11 5 0 -1 13 -12 29 -12 16 -21 34 -21 39 0 6 -4 12 -8 14 -12 5 -83 149
-122 248 -18 47 -38 91 -43 98 -5 6 -7 12 -3 12 3 0 -3 22 -14 49 -10 27 -16
52 -13 55 4 3 2 6 -4 6 -5 0 -10 6 -11 13 0 6 -3 22 -6 35 -15 59 -18 68 -19
87 -1 11 -5 22 -9 25 -4 4 -9 24 -12 45 -2 22 -6 47 -9 55 -7 19 -16 70 -23
135 -3 28 -11 56 -16 63 -7 8 -7 12 1 12 7 0 9 5 5 12 -4 7 -8 44 -9 83 -1 39
-5 77 -9 83 -4 7 -4 12 1 12 4 0 6 36 3 80 -3 44 -3 80 0 80 3 0 5 24 4 52 0
29 4 56 10 60 8 5 7 8 -1 8 -7 0 -10 9 -7 23 3 12 7 47 9 77 3 30 7 66 10 80
3 14 8 42 11 64 3 21 8 48 10 60 3 11 7 32 10 46 3 14 10 43 16 65 9 35 14 56
21 90 2 6 6 16 11 23 4 7 5 16 2 19 -3 3 -2 11 3 17 8 10 32 78 37 101 1 6 9
27 17 48 9 20 16 38 16 40 -1 1 11 25 25 53 14 29 26 57 26 63 0 6 5 11 10 11
6 0 9 3 8 8 -3 10 49 109 62 117 6 4 8 10 5 15 -3 5 -1 11 5 15 5 3 17 21 25
39 9 18 25 43 36 55 11 11 16 21 12 21 -4 0 -3 4 2 8 6 4 26 31 44 60 18 28
38 52 44 52 6 0 8 3 4 6 -6 6 2 19 39 59 12 13 19 26 16 29 -3 3 2 6 12 6 9 0
15 4 12 8 -3 5 19 34 49 65 30 31 53 57 51 57 -3 0 21 26 52 58 31 32 60 57
65 55 4 -2 7 1 7 7 0 6 7 18 15 26 8 9 15 13 15 10 0 -3 18 11 40 32 22 20 61
53 86 72 26 19 55 43 65 52 9 9 20 14 23 11 3 -3 8 2 12 11 3 9 12 16 20 16 8
0 14 5 14 10 0 6 7 10 15 10 7 0 19 8 24 18 6 9 11 13 11 9 0 -4 10 2 22 13
13 11 33 23 45 26 13 4 23 9 23 13 0 3 30 22 68 41 37 19 69 38 72 42 3 3 18
10 33 13 15 4 27 12 27 18 0 6 2 8 5 5 3 -3 31 7 62 23 31 16 60 26 64 23 5
-3 9 0 9 6 0 6 5 8 10 5 6 -3 10 -1 10 4 0 6 3 10 8 9 4 0 14 1 22 5 69 26
133 47 137 43 2 -2 21 4 41 14 20 10 44 16 54 15 10 -2 18 0 18 5 0 5 8 9 18
9 9 0 36 4 60 10 62 16 112 24 154 25 21 1 38 5 38 9 0 5 4 6 9 2 5 -3 16 4
24 15 10 15 14 48 13 115 -1 55 3 97 9 99 6 3 5 5 -2 5 -7 1 -10 8 -6 17 6 16
-30 58 -41 47z m1910 -2070 c9 -21 17 -45 19 -53 2 -8 4 -16 5 -17 2 -2 3 -6
4 -10 1 -5 16 -52 34 -105 18 -53 32 -105 32 -116 0 -10 3 -22 6 -25 4 -4 9
-30 11 -59 2 -29 8 -59 13 -67 4 -8 4 -25 -1 -38 -5 -13 -5 -23 0 -23 5 0 8
-75 6 -167 -1 -93 -3 -168 -4 -168 -3 0 -13 -71 -14 -102 -1 -13 -4 -23 -7
-23 -3 0 -7 -15 -9 -32 -6 -56 -7 -63 -13 -74 -4 -6 -9 -22 -12 -36 -2 -15 -9
-35 -15 -46 -6 -11 -7 -22 -4 -26 3 -3 0 -6 -7 -6 -7 0 -11 -3 -7 -6 3 -3 -5
-30 -18 -60 -13 -30 -21 -54 -17 -54 4 0 -1 -5 -11 -11 -9 -6 -14 -15 -11 -21
4 -7 2 -8 -5 -4 -6 4 -9 11 -6 16 3 5 1 11 -4 15 -6 3 -8 11 -6 18 11 30 13
67 4 67 -6 0 -6 8 1 20 8 15 8 20 -2 20 -9 0 -9 3 -2 8 13 9 13 114 -1 124 -6
5 -5 8 4 8 10 0 11 3 2 13 -6 8 -8 17 -4 20 9 9 12 77 4 77 -4 0 -7 10 -5 23
1 12 3 22 4 22 1 0 3 17 4 38 1 21 -2 37 -8 37 -7 0 -8 3 -1 8 13 9 14 65 0
74 -6 5 -6 8 2 8 8 0 9 9 3 29 -4 16 -5 32 -2 36 12 11 9 625 -2 625 -8 0 -8
3 -1 8 6 4 10 14 10 22 -1 8 4 21 9 29 8 11 8 13 -1 7 -7 -4 -13 -2 -13 3 0
24 21 9 36 -26z"/>
<path d="M3615 5556 c-5 -6 -10 -54 -10 -106 0 -52 5 -98 10 -102 6 -5 6 -8
-2 -8 -16 0 -4 -43 16 -55 19 -11 35 -15 74 -17 15 0 30 -4 32 -9 3 -4 14 -5
25 -2 11 3 20 1 20 -5 0 -6 7 -9 15 -8 9 1 41 -3 73 -9 31 -7 66 -8 77 -4 50
19 60 22 68 21 4 -1 7 2 7 6 0 5 11 22 25 38 24 27 29 39 26 57 0 4 3 7 8 7
12 0 -9 71 -26 88 -7 7 -13 18 -13 23 0 5 -3 8 -7 7 -5 -1 -21 5 -38 14 -31
16 -94 33 -109 30 -4 -2 -14 2 -20 8 -7 5 -15 8 -17 5 -3 -2 -22 0 -44 5 -22
5 -62 12 -90 15 -27 4 -59 8 -70 10 -11 1 -24 -2 -30 -9z"/>
<path d="M3244 5291 c-71 -37 -80 -73 -79 -343 0 -126 -4 -198 -10 -198 -6 0
-6 -3 0 -8 14 -10 14 -672 0 -672 -7 0 -7 -3 0 -8 6 -4 10 -25 10 -47 0 -22
-4 -43 -10 -47 -7 -5 -6 -8 1 -8 6 0 10 -17 9 -40 -1 -22 0 -40 2 -40 9 0 93
90 93 100 0 6 5 8 10 5 6 -3 10 -2 10 4 0 6 14 24 30 41 17 17 30 35 30 41 0
6 3 8 8 6 4 -3 13 1 20 9 7 8 10 14 7 14 -4 0 11 17 32 37 l38 37 2 506 c1
486 0 507 -19 552 -11 26 -24 45 -29 42 -5 -3 -9 -1 -9 5 0 12 -56 30 -90 29
-14 0 -39 -8 -56 -17z"/>
<path d="M3670 5011 c-8 -6 -18 -7 -24 -4 -5 3 -6 1 -2 -5 4 -7 3 -12 -2 -12
-13 0 -23 -26 -29 -72 -3 -24 -1 -38 6 -38 6 0 10 -3 10 -7 -7 -45 90 -91 129
-60 6 5 12 6 12 3 0 -4 8 1 19 11 26 26 43 81 31 103 -5 9 -6 20 -3 24 3 3 1
6 -5 6 -6 0 -13 8 -17 18 -10 35 -89 55 -125 33z"/>
<path d="M1713 4522 c-18 -2 -33 -7 -33 -12 0 -5 -9 -11 -20 -15 -11 -3 -19
-9 -17 -13 1 -4 -17 -27 -40 -50 -23 -23 -40 -42 -38 -42 4 0 -41 -53 -82 -96
-13 -13 -23 -26 -23 -29 0 -8 -63 -89 -73 -93 -4 -2 -5 -8 -1 -13 3 -5 0 -9
-7 -9 -7 0 -10 -3 -7 -6 3 -3 -5 -17 -18 -31 -13 -14 -21 -29 -18 -34 3 -5 1
-9 -5 -9 -5 0 -16 -14 -25 -30 -8 -17 -24 -46 -36 -65 -12 -19 -18 -35 -13
-35 4 0 1 -5 -7 -10 -8 -5 -15 -13 -15 -17 0 -7 -32 -75 -87 -190 -6 -11 -7
-26 -4 -31 4 -6 -1 -15 -9 -19 -9 -5 -18 -22 -21 -38 -3 -16 -8 -33 -12 -39
-3 -6 -8 -20 -9 -31 -2 -10 -9 -23 -16 -27 -6 -4 -9 -8 -5 -8 4 0 2 -15 -3
-32 -6 -18 -11 -37 -12 -43 -2 -5 -6 -16 -10 -22 -5 -7 -6 -13 -3 -13 2 0 -2
-24 -10 -52 -15 -55 -26 -114 -27 -135 0 -7 -3 -13 -7 -13 -4 0 -7 -17 -8 -37
-5 -121 -8 -153 -12 -153 -10 0 -8 -385 2 -397 5 -7 5 -14 -1 -17 -6 -4 -7
-16 -3 -29 5 -12 8 -37 8 -54 -1 -18 2 -33 5 -33 3 0 5 -16 4 -35 -2 -19 1
-38 6 -41 5 -3 7 -9 5 -13 -3 -4 -1 -23 4 -42 5 -19 12 -49 15 -68 3 -19 11
-43 17 -55 6 -11 11 -22 10 -23 -1 -2 -1 -5 -1 -8 3 -11 5 -21 13 -55 5 -19
13 -41 18 -47 6 -7 8 -13 5 -13 -6 0 27 -97 36 -107 4 -3 7 -15 7 -25 0 -10 5
-18 11 -18 5 0 8 -3 5 -8 -2 -4 6 -30 20 -57 13 -28 24 -55 24 -62 0 -6 3 -13
8 -15 4 -1 27 -42 51 -90 25 -49 48 -88 53 -88 4 0 7 -4 6 -9 -4 -14 44 -52
59 -47 7 3 15 1 18 -4 9 -14 62 16 76 43 14 25 18 67 7 67 -4 0 -10 11 -14 25
-3 14 -9 25 -14 25 -4 0 -15 16 -26 35 -10 19 -22 35 -26 35 -5 0 -7 3 -6 8 3
9 -53 124 -65 133 -4 3 -9 16 -10 27 -1 12 -5 22 -9 22 -4 0 -8 6 -8 14 0 7
-11 39 -25 70 -14 31 -25 57 -24 59 0 1 -2 9 -4 17 -3 8 -10 35 -17 60 -7 25
-15 52 -18 60 -7 21 -7 19 -20 81 -22 98 -25 113 -26 142 0 15 -3 27 -6 27 -3
0 -5 18 -4 40 0 22 -3 40 -8 40 -5 0 -4 9 2 20 6 11 7 20 2 20 -10 0 -10 311
1 328 5 7 3 12 -3 12 -8 0 -9 7 -5 18 4 9 9 33 11 52 2 19 6 53 9 75 4 22 8
56 9 75 2 19 5 35 6 35 1 0 3 7 5 15 9 41 18 87 19 102 1 10 5 21 9 24 4 4 7
16 7 26 0 10 5 18 11 18 5 0 8 4 4 10 -3 5 1 25 9 44 8 19 12 37 8 40 -3 3 1
6 8 6 7 0 11 3 8 6 -14 13 114 304 133 304 6 0 8 4 4 9 -3 5 -1 12 5 16 6 4 8
11 5 16 -4 5 -1 9 4 9 6 0 11 7 11 15 0 8 5 15 11 15 5 0 8 4 5 9 -4 5 -3 11
1 13 10 4 73 106 73 118 0 5 4 10 8 12 5 2 23 24 40 50 18 25 39 54 48 62 8 9
13 16 10 16 -3 0 7 13 22 28 54 57 87 97 85 104 -2 4 6 10 17 13 11 4 20 10
20 14 0 4 9 17 21 29 11 12 17 27 14 32 -3 6 -2 10 3 10 5 0 10 11 10 25 0 14
-5 25 -11 25 -6 0 -8 3 -4 6 7 8 -17 34 -31 34 -6 0 -12 3 -14 8 -1 4 -18 6
-35 4z"/>
<path d="M2775 4329 c-4 -13 -9 -28 -10 -34 -2 -5 -4 -12 -5 -15 -5 -15 -12
-48 -13 -67 0 -13 -5 -23 -9 -23 -4 0 -8 -5 -8 -11 0 -18 -63 -99 -77 -99 -7
0 -13 -4 -13 -9 0 -7 -31 -20 -48 -21 -1 0 -16 -7 -32 -15 -16 -8 -33 -14 -37
-13 -5 2 -9 -6 -11 -17 -2 -16 3 -21 22 -23 78 -6 206 -106 214 -167 7 -55 9
-66 15 -72 4 -3 7 -15 7 -25 0 -23 19 -24 27 0 4 9 11 20 17 24 7 5 7 8 -2 8
-8 0 -10 5 -5 13 4 6 9 20 10 30 5 30 43 98 58 104 8 3 13 8 11 12 -4 6 88 63
109 67 25 5 65 24 65 32 0 4 -17 14 -37 21 -64 22 -93 36 -93 43 0 5 -5 8 -11
8 -34 0 -104 123 -112 196 -2 22 -8 48 -14 58 -9 17 -11 16 -18 -5z"/>
<path d="M2213 3854 c-7 -3 -10 -11 -7 -19 3 -7 1 -16 -5 -19 -6 -4 -8 -13 -4
-21 3 -8 0 -15 -5 -15 -6 0 -9 -9 -7 -20 2 -11 0 -20 -4 -20 -4 0 -13 -11 -19
-25 -11 -24 -99 -75 -129 -75 -11 0 -11 -5 -3 -20 6 -11 15 -18 20 -15 5 3 11
1 15 -5 4 -6 11 -8 16 -5 5 4 9 1 9 -4 0 -6 7 -11 15 -11 8 0 15 -5 15 -11 0
-5 4 -8 8 -5 11 7 44 -38 63 -87 16 -40 38 -60 40 -38 3 21 5 27 28 74 13 26
26 46 28 43 3 -3 13 4 22 15 9 11 27 21 40 24 36 7 54 25 40 41 -6 8 -15 11
-20 8 -5 -3 -9 0 -9 6 0 7 -7 10 -15 6 -8 -3 -15 0 -15 6 0 6 -3 9 -6 5 -9 -9
-60 54 -78 97 -9 21 -17 51 -18 67 -1 16 -2 29 -3 28 0 0 -5 -3 -12 -5z"/>
<path d="M2568 3565 c-19 -13 -39 -32 -43 -42 -13 -30 -16 -93 -5 -93 6 0 9
-4 6 -9 -10 -15 48 -56 82 -59 36 -3 68 11 95 41 20 23 19 21 22 70 1 31 -5
45 -32 74 -18 21 -33 33 -33 29 0 -5 -6 -3 -14 3 -11 9 -16 9 -21 0 -5 -8 -9
-8 -14 0 -5 7 -19 2 -43 -14z"/>
<path d="M1926 3313 c-4 -16 -6 -34 -5 -39 1 -5 0 -12 -1 -16 -4 -13 -6 -21
-14 -70 -4 -27 -11 -48 -16 -48 -5 0 -11 -14 -15 -30 -8 -36 -57 -88 -91 -96
-13 -3 -24 -10 -24 -15 0 -5 -3 -8 -7 -7 -5 1 -24 -4 -43 -11 -19 -8 -38 -13
-42 -12 -5 0 -8 -3 -8 -9 0 -5 6 -11 13 -12 13 -1 29 -5 37 -8 3 -1 12 -3 21
-5 31 -6 91 -38 96 -52 3 -7 9 -10 14 -7 5 3 9 0 9 -6 0 -6 8 -20 18 -31 16
-16 45 -90 44 -109 0 -3 3 -9 8 -15 4 -5 6 -18 5 -27 -2 -9 3 -22 10 -28 10
-8 15 -4 23 20 6 16 9 39 7 50 -2 11 0 20 6 20 5 0 9 7 9 15 0 21 32 85 42 85
5 0 6 5 3 10 -3 6 -2 10 3 10 5 0 19 9 32 20 13 11 29 20 37 20 7 0 13 5 13
11 0 5 4 8 9 5 5 -3 21 4 37 16 15 13 24 17 20 9 -7 -10 -4 -11 13 -2 11 7 21
14 21 17 0 3 -4 2 -10 -1 -5 -3 -10 -1 -10 4 0 6 -3 10 -7 9 -18 -5 -83 24
-77 34 4 7 2 8 -5 4 -30 -19 -128 122 -133 192 -1 17 -7 32 -13 32 -5 0 -4 4
4 9 9 6 10 11 2 15 -6 4 -9 11 -6 16 3 5 -1 22 -8 37 l-15 27 -6 -31z"/>
<path d="M2207 3212 c-26 -29 -26 -79 1 -89 9 -4 20 -11 25 -17 4 -7 10 -8 15
-1 4 6 16 15 27 21 27 15 31 56 7 77 -27 25 -58 28 -75 9z"/>
</g>
</svg>
